<svg width="200" height="60" viewBox="0 0 200 60" xmlns="http://www.w3.org/2000/svg">
  <!-- Background circle -->
  <circle cx="30" cy="30" r="25" fill="#10b981" />
  
  <!-- Book/Learning icon -->
  <path d="M20 20 h20 v16 h-20 z" fill="white" opacity="0.9"/>
  <path d="M22 22 h16 v2 h-16 z" fill="#10b981"/>
  <path d="M22 26 h12 v1 h-12 z" fill="#10b981"/>
  <path d="M22 29 h14 v1 h-14 z" fill="#10b981"/>
  <path d="M22 32 h10 v1 h-10 z" fill="#10b981"/>
  
  <!-- Wind/Flow element -->
  <path d="M42 15 Q50 20 45 25 Q52 30 48 35" stroke="#10b981" stroke-width="2" fill="none" opacity="0.7"/>
  <path d="M44 18 Q50 22 46 26 Q51 30 49 33" stroke="#059669" stroke-width="1.5" fill="none" opacity="0.5"/>
  
  <!-- Text -->
  <text x="70" y="25" font-family="Arial, sans-serif" font-size="18" font-weight="bold" fill="#1f2937">Course</text>
  <text x="70" y="45" font-family="Arial, sans-serif" font-size="18" font-weight="bold" fill="#10b981">Wind</text>
  
  <!-- Decorative dots -->
  <circle cx="165" cy="20" r="2" fill="#10b981" opacity="0.6"/>
  <circle cx="175" cy="25" r="1.5" fill="#059669" opacity="0.4"/>
  <circle cx="185" cy="30" r="1" fill="#047857" opacity="0.3"/>
</svg>